<svg preserveAspectRatio="none" width="100%" height="100%" overflow="visible" style="display: block;" viewBox="0 0 18 18" fill="none" xmlns="http://www.w3.org/2000/svg">
<g id="Icon">
<path id="Vector" d="M9.00007 2.2575V2.25M9.00007 15.75V15.7575M11.5818 2.77103L11.5846 2.7641M6.41841 15.2365L6.41554 15.2434M13.7704 4.23349L13.7757 4.22819M4.22975 13.7741L4.22445 13.7795M15.2327 6.42221L15.2397 6.41935M2.76732 11.5856L2.76039 11.5885M2.25384 9.00375H2.24634M15.7463 9.00375H15.7538M4.22993 4.23339L4.22463 4.22808M13.7706 13.7741L13.7758 13.7793M2.7676 6.42185L2.76067 6.41898M15.233 11.5852L15.24 11.5881M6.41839 2.771L6.41552 2.76407M11.5817 15.2365L11.5846 15.2434" stroke="var(--stroke-0, #DDDDDD)" stroke-width="1.5" stroke-linecap="round" stroke-linejoin="round"/>
</g>
</svg>
