<svg preserveAspectRatio="none" width="100%" height="100%" overflow="visible" style="display: block;" viewBox="0 0 20 20" fill="none" xmlns="http://www.w3.org/2000/svg">
<g id="IconBento">
<path id="Vector" d="M15.2031 2.50391C16.4688 2.50391 17.4948 3.52991 17.4948 4.79557V15.2122C17.4948 16.4779 16.4688 17.5039 15.2031 17.5039H13.1198C11.8541 17.5039 10.8281 16.4779 10.8281 15.2122V4.79557C10.8281 3.52991 11.8541 2.50391 13.1198 2.50391H15.2031Z" fill="var(--fill-0, #360057)"/>
<path id="Vector_2" d="M6.875 10.8359C8.14065 10.8359 9.16667 11.8619 9.16667 13.1276V15.2109C9.16667 16.4766 8.14065 17.5026 6.875 17.5026H4.79167C3.52602 17.5026 2.5 16.4766 2.5 15.2109V13.1276C2.5 11.8619 3.52602 10.8359 4.79167 10.8359H6.875Z" fill="var(--fill-0, #360057)"/>
<path id="Vector_3" d="M6.875 2.5C8.14065 2.5 9.16667 3.52602 9.16667 4.79167V6.875C9.16667 8.14065 8.14065 9.16667 6.875 9.16667H4.79167C3.52602 9.16667 2.5 8.14065 2.5 6.875V4.79167C2.5 3.52602 3.52602 2.5 4.79167 2.5H6.875Z" fill="var(--fill-0, #360057)"/>
</g>
</svg>
