<svg preserveAspectRatio="none" width="100%" height="100%" overflow="visible" style="display: block;" viewBox="0 0 34.5051 34.5051" fill="none" xmlns="http://www.w3.org/2000/svg">
<g id="IconStore2">
<path id="Vector" d="M20.8379 5.75276H13.6493L13.2377 11.5146C13.0717 13.8393 14.913 15.8167 17.2436 15.8167C19.5743 15.8167 21.4154 13.8393 21.2494 11.5146L20.8379 5.75276Z" stroke="var(--stroke-0, black)" stroke-width="1.72525" stroke-linecap="round" stroke-linejoin="round"/>
<path id="Vector_2" d="M13.6506 5.75276H8.23704C6.80609 5.75276 5.59289 6.80496 5.39052 8.22154L4.9804 11.0924C4.62419 13.5859 6.55903 15.8167 9.07783 15.8167C11.2493 15.8167 13.0516 14.1386 13.2063 11.9726L13.6506 5.75276Z" stroke="var(--stroke-0, black)" stroke-width="1.72525" stroke-linecap="round" stroke-linejoin="round"/>
<path id="Vector_3" d="M26.2562 5.75276H20.8427L21.2869 11.9726C21.4416 14.1386 23.244 15.8167 25.4155 15.8167C27.9343 15.8167 29.8691 13.5859 29.5129 11.0924L29.1028 8.22154C28.9005 6.80496 27.6872 5.75276 26.2562 5.75276Z" stroke="var(--stroke-0, black)" stroke-width="1.72525" stroke-linecap="round" stroke-linejoin="round"/>
<path id="Vector_4" d="M5.74673 14.379V25.8807C5.74673 27.4688 7.0341 28.7561 8.62215 28.7561H14.373V24.443C14.373 22.8549 15.6603 21.5676 17.2484 21.5676C18.8365 21.5676 20.1238 22.8549 20.1238 24.443V28.7561H25.8747C27.4628 28.7561 28.7501 27.4688 28.7501 25.8807V14.379" stroke="var(--stroke-0, black)" stroke-width="1.72525" stroke-linecap="round" stroke-linejoin="round"/>
</g>
</svg>
